<mxfile host="app.diagrams.net" modified="2023-07-27T10:09:08.312Z" agent="Mozilla/5.0 (Windows NT 10.0; Win64; x64) AppleWebKit/537.36 (KHTML, like Gecko) Chrome/114.0.0.0 Safari/537.36" version="21.6.5" etag="kU27-b0IdixKrX9xF7vP" type="github">
  <diagram name="페이지-1" id="35iXjjElB2i4DP399khT">
    <mxGraphModel>
      <root>
        <mxCell id="0" />
        <mxCell id="1" parent="0" />
      </root>
    </mxGraphModel>
  </diagram>
</mxfile>
